<?xml version="1.0" encoding="UTF-8"?>
<svg width="1024px" height="1024px" viewBox="0 0 1024 1024" version="1.1" xmlns="http://www.w3.org/2000/svg" xmlns:xlink="http://www.w3.org/1999/xlink">
    <title>Atelier Icon</title>
    <defs>
        <path d="M0,0 L1024,0 L1024,1024 L0,1024 L0,0 Z" id="path-1"></path>
        <linearGradient x1="50%" y1="0%" x2="50%" y2="100%" id="linearGradient-2">
            <stop stop-color="color(display-p3 0.984 0.981 0.976)" offset="0%"></stop>
            <stop stop-color="color(display-p3 0.906 0.906 0.906)" offset="100%"></stop>
        </linearGradient>
    </defs>
    <g id="Atelier-Icon" stroke="none" fill="none" xlink:href="#path-1" fill-rule="evenodd">
        <use fill="color(display-p3 1.000 1.000 1.000)" xlink:href="#path-1"></use>
        <polygon id="Background" fill="url(#linearGradient-2)" points="0 0 1024 0 1024 1024 0 1024"></polygon>
        <path d="M163.845828,227 L860.154172,227 C861.49145,227 861.97638,227.139238 862.465269,227.400699 C862.954157,227.66216 863.33784,228.045843 863.599301,228.534731 C863.860762,229.02362 864,229.50855 864,230.845828 L864,233.154172 C864,234.49145 863.860762,234.97638 863.599301,235.465269 C863.33784,235.954157 862.954157,236.33784 862.465269,236.599301 C861.97638,236.860762 861.49145,237 860.154172,237 L163.845828,237 C162.50855,237 162.02362,236.860762 161.534731,236.599301 C161.045843,236.33784 160.66216,235.954157 160.400699,235.465269 C160.139238,234.97638 160,234.49145 160,233.154172 L160,230.845828 C160,229.50855 160.139238,229.02362 160.400699,228.534731 C160.66216,228.045843 161.045843,227.66216 161.534731,227.400699 C162.02362,227.139238 162.50855,227 163.845828,227 Z" id="Line-1" fill="color(display-p3 0.847 0.831 0.812)"></path>
        <path d="M163.845828,367 L860.154172,367 C861.49145,367 861.97638,367.139238 862.465269,367.400699 C862.954157,367.66216 863.33784,368.045843 863.599301,368.534731 C863.860762,369.02362 864,369.50855 864,370.845828 L864,373.154172 C864,374.49145 863.860762,374.97638 863.599301,375.465269 C863.33784,375.954157 862.954157,376.33784 862.465269,376.599301 C861.97638,376.860762 861.49145,377 860.154172,377 L163.845828,377 C162.50855,377 162.02362,376.860762 161.534731,376.599301 C161.045843,376.33784 160.66216,375.954157 160.400699,375.465269 C160.139238,374.97638 160,374.49145 160,373.154172 L160,370.845828 C160,369.50855 160.139238,369.02362 160.400699,368.534731 C160.66216,368.045843 161.045843,367.66216 161.534731,367.400699 C162.02362,367.139238 162.50855,367 163.845828,367 Z" id="Line-2" fill="color(display-p3 0.847 0.831 0.812)"></path>
        <path d="M163.845828,507 L860.154172,507 C861.49145,507 861.97638,507.139238 862.465269,507.400699 C862.954157,507.66216 863.33784,508.045843 863.599301,508.534731 C863.860762,509.02362 864,509.50855 864,510.845828 L864,513.154172 C864,514.49145 863.860762,514.97638 863.599301,515.465269 C863.33784,515.954157 862.954157,516.33784 862.465269,516.599301 C861.97638,516.860762 861.49145,517 860.154172,517 L163.845828,517 C162.50855,517 162.02362,516.860762 161.534731,516.599301 C161.045843,516.33784 160.66216,515.954157 160.400699,515.465269 C160.139238,514.97638 160,514.49145 160,513.154172 L160,510.845828 C160,509.50855 160.139238,509.02362 160.400699,508.534731 C160.66216,508.045843 161.045843,507.66216 161.534731,507.400699 C162.02362,507.139238 162.50855,507 163.845828,507 Z" id="Line-3" fill="color(display-p3 0.847 0.831 0.812)"></path>
        <path d="M163.845828,647 L860.154172,647 C861.49145,647 861.97638,647.139238 862.465269,647.400699 C862.954157,647.66216 863.33784,648.045843 863.599301,648.534731 C863.860762,649.02362 864,649.50855 864,650.845828 L864,653.154172 C864,654.49145 863.860762,654.97638 863.599301,655.465269 C863.33784,655.954157 862.954157,656.33784 862.465269,656.599301 C861.97638,656.860762 861.49145,657 860.154172,657 L163.845828,657 C162.50855,657 162.02362,656.860762 161.534731,656.599301 C161.045843,656.33784 160.66216,655.954157 160.400699,655.465269 C160.139238,654.97638 160,654.49145 160,653.154172 L160,650.845828 C160,649.50855 160.139238,649.02362 160.400699,648.534731 C160.66216,648.045843 161.045843,647.66216 161.534731,647.400699 C162.02362,647.139238 162.50855,647 163.845828,647 Z" id="Line-4" fill="color(display-p3 0.847 0.831 0.812)"></path>
        <path d="M163.845828,787 L860.154172,787 C861.49145,787 861.97638,787.139238 862.465269,787.400699 C862.954157,787.66216 863.33784,788.045843 863.599301,788.534731 C863.860762,789.02362 864,789.50855 864,790.845828 L864,793.154172 C864,794.49145 863.860762,794.97638 863.599301,795.465269 C863.33784,795.954157 862.954157,796.33784 862.465269,796.599301 C861.97638,796.860762 861.49145,797 860.154172,797 L163.845828,797 C162.50855,797 162.02362,796.860762 161.534731,796.599301 C161.045843,796.33784 160.66216,795.954157 160.400699,795.465269 C160.139238,794.97638 160,794.49145 160,793.154172 L160,790.845828 C160,789.50855 160.139238,789.02362 160.400699,788.534731 C160.66216,788.045843 161.045843,787.66216 161.534731,787.400699 C162.02362,787.139238 162.50855,787 163.845828,787 Z" id="Line-5" fill="color(display-p3 0.847 0.831 0.812)"></path>
    </g>
</svg>