<?xml version="1.0" encoding="UTF-8"?>
<svg width="704px" height="10px" viewBox="0 0 704 10" version="1.1" xmlns="http://www.w3.org/2000/svg" xmlns:xlink="http://www.w3.org/1999/xlink">
    <title>Line 4</title>
    <g id="App-Icon" stroke="none" stroke-width="1" fill="none" fill-rule="evenodd">
        <g id="Atelier-Icon" transform="translate(-160, -647)" fill="color(display-p3 0.847 0.831 0.812)">
            <path d="M163.845828,647 L860.154172,647 C861.49145,647 861.97638,647.139238 862.465269,647.400699 C862.954157,647.66216 863.33784,648.045843 863.599301,648.534731 C863.860762,649.02362 864,649.50855 864,650.845828 L864,653.154172 C864,654.49145 863.860762,654.97638 863.599301,655.465269 C863.33784,655.954157 862.954157,656.33784 862.465269,656.599301 C861.97638,656.860762 861.49145,657 860.154172,657 L163.845828,657 C162.50855,657 162.02362,656.860762 161.534731,656.599301 C161.045843,656.33784 160.66216,655.954157 160.400699,655.465269 C160.139238,654.97638 160,654.49145 160,653.154172 L160,650.845828 C160,649.50855 160.139238,649.02362 160.400699,648.534731 C160.66216,648.045843 161.045843,647.66216 161.534731,647.400699 C162.02362,647.139238 162.50855,647 163.845828,647 Z" id="Line-4"></path>
        </g>
    </g>
</svg>