<?xml version="1.0" encoding="UTF-8"?>
<svg width="520px" height="470px" viewBox="0 0 520 470" version="1.1" xmlns="http://www.w3.org/2000/svg" xmlns:xlink="http://www.w3.org/1999/xlink">
    <title>scribble</title>
    <defs>
        <linearGradient x1="0%" y1="9.37360793%" x2="100%" y2="90.6263921%" id="linearGradient-1">
            <stop stop-color="color(display-p3 0.706 0.310 0.910)" offset="0%"></stop>
            <stop stop-color="color(display-p3 0.910 0.271 0.420)" offset="100%"></stop>
        </linearGradient>
    </defs>
    <g id="scribble.variable" stroke="none" fill="none" transform="translate(0, 0.9431)" fill-rule="evenodd" stroke-width="1">
        <g id="Group" fill="url(#linearGradient-1)">
            <path d="M10.0135172,313.19375 C22.4792362,325.46772 46.8353752,327.576879 65.4381316,310.892135 C71.9587192,305.52301 85.9587695,290.563822 121.438202,254.509117 C240.534465,133.687428 323.19098,50.6460011 342.944544,66.9472735 C359.821744,80.5637214 316.287445,142.700122 277.931125,196.01563 C195.465756,312.042943 136.781123,384.535956 180.122966,428.070255 C214.068513,461.823345 268.342372,429.988267 357.328983,351.933673 C408.725169,306.673817 446.123138,271.385007 458.971857,284.04258 C468.178316,293.056584 456.671551,313.769808 436.534385,348.673706 C412.561194,389.906391 383.986082,432.481029 411.21924,459.52304 C430.205598,478.509399 466.45145,468.72819 513.438172,423.468334 C520.534163,416.372343 522.452176,408.316691 516.314536,402.371507 C510.752955,397.002382 502.889758,397.769587 496.944575,403.331168 C463.575086,436.125907 439.218293,448.591024 432.507213,441.495033 C424.644017,434.015439 436.534385,411.194364 462.040677,366.89286 C494.64296,310.700988 508.643796,277.713794 484.095855,253.741912 C449.766706,220.372424 409.108771,254.892719 330.095825,324.316913 C257.026753,388.755583 231.136859,401.2207 220.972048,391.057198 C207.163668,377.248818 226.726085,351.933673 316.287445,226.70121 C390.122412,123.139145 430.205598,58.3172651 389.740119,20.5363486 C335.081348,-31.0526862 263.739142,9.41310734 70.0408377,200.810006 C33.027257,236.864712 18.2601326,251.056694 12.5066715,257.577937 C-5.13717037,276.947898 -2.26045289,300.91978 10.0135172,313.19375 Z" id="Path"></path>
        </g>
    </g>
</svg>