<?xml version="1.0" encoding="UTF-8"?>
<svg width="293px" height="293px" viewBox="0 0 293 293" version="1.1" xmlns="http://www.w3.org/2000/svg" xmlns:xlink="http://www.w3.org/1999/xlink">
    <title>Shape</title>
    <g id="App-Icon" stroke="none" stroke-width="1" fill="none" fill-rule="evenodd" fill-opacity="0.85">
        <g id="Atelier-Icon" transform="translate(-176, -169)" fill="color(display-p3 1.000 1.000 1.000)">
            <g id="Group" transform="translate(159.9, 164.506)">
                <path d="M269.743903,290.150856 C278.63547,299.338454 292.865214,298.450245 301.461339,289.558043 C310.650371,280.963258 311.538718,266.440339 302.349687,257.550159 L55.7272963,11.2622631 C46.8345157,2.37101128 32.3099373,2.96374386 23.713812,12.1513822 C15.1174843,20.7462475 14.2282265,35.2685601 22.824453,43.8635468 L269.743903,290.150856 Z M56.023547,290.150856 L302.647151,43.8635468 C311.538718,35.2685601 310.650371,20.7462475 301.756781,12.1513822 C293.160655,2.96374386 278.63547,2.37101128 270.039345,11.2622631 L23.120906,257.550159 C14.2282265,266.440339 15.1174843,280.963258 24.0100627,289.558043 C32.6063903,298.450245 46.8345157,299.338454 56.023547,290.150856 Z" id="Shape" fill-rule="nonzero"></path>
            </g>
        </g>
    </g>
</svg>